<svg xmlns="http://www.w3.org/2000/svg" width="77" height="76" viewBox="0 0 77 76" fill="none"><rect x="6.9873" y="0.0234375" width="69.5101" height="69.5101" rx="10" transform="rotate(5.12272 6.9873 0.0234375)" fill="white"></rect><g clip-path="url(#clip0_42_175)"><path d="M22.1645 20.9248C23.8059 21.0719 25.4523 21.2195 27.0982 21.3721C27.193 21.3806 27.3002 21.4754 27.3583 21.5558C27.8224 22.214 27.9804 22.9751 28.0868 23.7517C28.2193 24.686 28.3468 25.6198 28.4848 26.5495C28.5668 27.0933 28.674 27.1881 29.2327 27.2382C34.727 27.7157 40.2208 28.1982 45.7101 28.6753C48.9384 28.9597 52.1668 29.2441 55.3942 29.5384C55.7185 29.5675 56.0483 29.6472 56.3442 29.7689C57.1106 30.0833 57.4083 30.8018 57.1217 31.6985C56.6749 33.0922 56.1895 34.4673 55.7132 35.8534C54.692 38.8298 53.6663 41.8008 52.6406 44.7718C52.5932 44.908 52.5653 45.0508 52.5033 45.1806C52.3862 45.4208 52.1736 45.4368 52.001 45.2308C50.8329 43.8428 49.6594 42.4593 48.4918 41.0662C48.142 40.6489 48.186 40.3821 48.6131 40.0494C49.062 39.6987 49.5063 39.3425 49.937 38.97C50.2857 38.6704 50.262 38.5429 49.8291 38.3788C48.4515 37.8693 47.0722 37.3797 45.6941 36.8752C44.3892 36.3973 43.0906 35.9049 41.7851 35.4319C41.6486 35.3846 41.4568 35.3924 41.3303 35.4563C41.2565 35.4948 41.2282 35.6978 41.2479 35.8149C41.6011 37.8217 41.9642 39.8294 42.3274 41.8371C42.4756 42.6524 42.6242 43.4628 42.7824 44.2791C42.861 44.6922 42.9831 44.7332 43.3146 44.4572C43.7924 44.0639 44.2657 43.6651 44.734 43.266C45.0768 42.9759 45.2827 42.9793 45.5694 43.3158C46.5289 44.4495 47.488 45.5883 48.4366 46.731C48.5002 46.8069 48.5458 46.9714 48.5051 47.033C48.4526 47.1135 48.3012 47.1751 48.1965 47.1657C43.0777 46.7068 37.964 46.2484 32.8461 45.7796C31.7086 45.6776 30.5707 45.5806 29.4417 45.4393C28.7505 45.3522 28.4107 44.9909 28.2926 44.2885C28.0977 43.1532 27.9286 42.0101 27.7545 40.8665C27.0074 36.0171 26.2598 31.1726 25.5127 26.3232C25.4362 25.8301 25.3802 25.3338 25.3141 24.8366C25.2324 24.2327 25.0069 23.8315 24.2948 23.7526C23.7972 23.693 23.305 23.5736 22.8259 23.4204C21.8237 23.1 21.51 22.3349 21.9534 21.3721C22.0217 21.2278 22.0899 21.0835 22.1645 20.9248Z" fill="#0072E2"></path><path d="M45.9325 52.3117C45.7229 52.2929 45.5075 52.2836 45.2989 52.2549C44.3309 52.113 43.8385 51.5475 43.8252 50.5738C43.8105 49.615 44.4015 48.8007 45.3054 48.5358C46.2251 48.2623 47.1693 48.6127 47.6994 49.4322C48.1812 50.1722 48.0867 51.2265 47.4855 51.9296C47.2044 52.2603 46.8755 52.4514 46.4246 52.3759C46.2609 52.3512 46.1003 52.3468 45.9357 52.3321L45.9366 52.3221L45.9325 52.3117Z" fill="#0072E2"></path><path d="M33.3814 51.2414C33.0275 51.1495 32.6606 51.0915 32.3253 50.9612C31.8438 50.7777 31.5866 50.3937 31.5218 49.8815C31.3716 48.6399 32.0067 47.614 33.0947 47.3706C33.9674 47.1732 34.6739 47.4821 35.2219 48.1579C35.7694 48.8386 35.8526 49.593 35.4756 50.3764C35.1601 51.0349 34.5563 51.2063 33.8857 51.2264C33.7242 51.232 33.5564 51.1969 33.3967 51.1826L33.3918 51.2373L33.3814 51.2414Z" fill="#0072E2"></path></g><defs><clipPath id="clip0_42_175"><rect width="36.1452" height="29.1942" fill="white" transform="translate(21.8653 20.8979) rotate(5.12272)"></rect></clipPath></defs></svg>