<svg xmlns="http://www.w3.org/2000/svg" width="76" height="76" viewBox="0 0 76 76" fill="none"><rect x="0.545898" y="20.1516" width="58.8235" height="58.8235" rx="10" transform="rotate(-19.2187 0.545898 20.1516)" fill="white"></rect><path d="M44.3497 34.3856C39.3237 35.0243 34.969 37.2846 30.7791 40.0177C29.9468 40.5199 29.9468 40.5199 30.2578 41.2597C30.4369 41.6214 30.616 41.9831 30.7478 42.3613C31.3511 43.6355 31.9708 44.957 32.6213 46.2147C32.8169 46.6237 32.9652 47.0491 33.1608 47.4581L34.5464 50.3681C34.7255 50.7298 34.8881 51.0443 35.0672 51.406C35.4419 52.1766 35.8331 52.9946 36.1605 53.7817C36.3561 54.1907 36.5517 54.5997 36.7472 55.0087C37.2043 56.0157 37.6614 57.0227 38.1515 58.1243C39.2366 57.587 40.2436 57.1299 41.2177 56.5783C43.0878 55.5552 44.7974 54.3761 46.1366 52.7428C46.4797 52.3581 46.759 51.9427 47.102 51.558C46.913 51.6239 46.7074 51.6425 46.471 51.7249C46.6601 51.659 46.8657 51.6404 47.102 51.558C47.3506 51.2063 47.6299 50.7908 47.8784 50.4391C48.447 49.1805 49.032 47.9692 49.6006 46.7107C49.7767 45.695 49.9363 44.632 50.1597 43.5999C50.2048 43.4251 50.2026 43.2668 50.2477 43.092C50.3692 40.3988 49.5288 37.9879 48.0265 35.8077C46.6231 33.9112 47.1475 34.0465 44.3497 34.3856ZM43.8888 51.6178C43.9361 51.6013 43.9999 51.6321 44.0471 51.6156C43.9999 51.6321 43.9526 51.6486 43.8888 51.6178ZM39.3539 43.0194C39.0486 41.5353 38.7598 40.0985 38.3765 38.6946C38.3084 38.3472 38.4975 38.2813 38.7646 38.1352C39.3054 38.3178 39.9716 38.4037 40.4035 38.7302C41.0905 39.18 41.574 39.8067 42.1994 40.3839C42.4258 40.7291 42.5884 41.0436 42.8148 41.3888C43.0928 42.0341 43.3543 42.6322 43.6323 43.2775L43.9289 44.1284C44.0486 44.7759 44.1683 45.4234 44.2879 46.0709C44.2658 46.7678 44.2745 47.401 44.2523 48.098C44.0498 49.494 43.8 50.9065 42.9313 52.2167C42.5904 52.7597 42.1857 53.2718 41.7503 53.8478L41.5712 53.4861C41.5361 53.2332 41.4701 53.0441 41.435 52.7913C41.2143 51.7019 40.9463 50.6289 40.7256 49.5395C40.5235 48.6556 40.3049 47.7245 40.1028 46.8406C39.847 45.4984 39.5768 44.2671 39.3539 43.0194Z" fill="#0070BD"></path><path d="M42.3764 27.8104C41.0025 26.9109 40.8247 25.4884 40.4578 24.1318C40.152 24.9276 39.9243 25.6432 39.6493 26.3753C39.2612 26.9347 38.9368 27.525 38.1639 27.7414C37.1218 27.9456 36.4491 27.3848 35.7457 26.8878C34.9391 25.7906 34.1324 24.6933 33.4555 23.816C33.4871 24.9713 33.5209 26.285 33.5712 27.6459C33.4788 27.8371 33.4502 28.0592 33.3578 28.2504C33.1301 28.966 32.8222 29.6035 31.9713 29.9002C31.1347 30.0858 30.4972 29.7778 29.8289 29.5336C29.2694 29.1455 28.71 28.7573 28.0395 28.3548C28.2351 28.7638 28.445 29.0618 28.5603 29.3927C29.0339 30.447 29.3656 31.5507 28.8114 32.6982C28.189 33.4984 27.3524 33.684 26.4005 33.5387C25.7343 33.4528 25.0352 33.2724 24.3999 33.1227C25.6979 34.2608 27.1993 35.2219 27.7926 36.9237C29.0845 35.3069 30.8128 34.3333 32.5081 33.2651C33.7042 32.7421 34.8201 32.1411 36.0492 31.7126C37.2783 31.2841 38.5568 30.9975 39.8188 30.6636C41.5909 30.576 43.363 30.4884 45.135 30.4009C45.2933 30.3987 45.5275 30.158 45.5253 29.9997C45.7322 28.9203 45.8754 27.81 46.035 26.7471C46.1252 26.3975 46.2627 26.0315 46.3529 25.6819C45.8372 26.1798 45.4018 26.7557 44.9334 27.2371C44.1506 27.8811 43.3469 28.1613 42.3764 27.8104Z" fill="#F5C001"></path><path d="M31.2278 38.1116C32.1689 37.4654 33.1265 36.8665 34.0677 36.2203C35.0747 35.7632 36.0344 35.3226 37.0415 34.8655C37.9561 34.5997 38.8708 34.3339 39.8162 34.0043C40.3054 33.8868 40.7638 33.833 41.253 33.7155C42.5029 33.6509 43.6891 33.5555 44.939 33.4909C45.7612 33.4163 46.3407 32.9492 46.4573 32.2193C46.5905 31.5367 46.1069 30.91 45.2682 30.9373C43.6852 30.959 42.0879 31.0917 40.5379 31.2079C40.0487 31.3254 39.5903 31.3791 39.1011 31.4967C38.1865 31.7625 37.2718 32.0283 36.3099 32.3107C35.3029 32.7677 34.2958 33.2248 33.3361 33.6654C32.3004 34.3446 31.2647 35.0237 30.2126 35.6556C29.8366 35.9457 29.4606 36.2358 29.1318 36.5095C28.725 36.8634 28.4622 37.3261 28.6743 37.7824C28.8534 38.1441 29.1908 38.5036 29.6041 38.6246C30.2251 38.8853 30.8067 38.5765 31.2278 38.1116Z" fill="#F5C001"></path><path d="M33.1008 22.19C33.6681 21.9922 33.9001 21.5933 33.8442 20.9766C33.6607 20.2983 33.0397 20.0376 32.3779 20.2683C31.7161 20.499 31.4862 21.0563 31.7169 21.7181C32.1038 22.2195 32.5335 22.3878 33.1008 22.19Z" fill="#0070BD"></path><path d="M46.4105 22.9578C45.8905 23.139 45.7222 23.5688 45.8727 24.1526C46.0847 24.6088 46.5453 24.7133 47.018 24.5485C47.4908 24.3838 47.7865 24.0156 47.669 23.5264C47.424 22.9756 46.9777 22.76 46.4105 22.9578Z" fill="#0070BD"></path><path d="M22.4601 31.3601C21.9566 31.5886 21.7081 31.9404 21.8256 32.4296C22.0069 32.9495 22.4839 33.1013 23.0039 32.9201C23.5712 32.7223 23.8032 32.3233 23.622 31.8033C23.3791 31.4108 23.0109 31.1151 22.4601 31.3601Z" fill="#0070BD"></path><path d="M27.2979 27.4464C27.8179 27.2651 28.0664 26.9134 27.9797 26.3604C27.7347 25.8096 27.3522 25.6249 26.7849 25.8226C26.2176 26.0204 26.0329 26.4029 26.1833 26.9866C26.3646 27.5066 26.7779 27.6276 27.2979 27.4464Z" fill="#0070BD"></path><path d="M40.9594 22.6838C41.4794 22.5025 41.6642 22.12 41.5467 21.6308C41.3489 21.0635 40.9027 20.8479 40.3046 21.1095C39.7373 21.3072 39.5691 21.737 39.7668 22.3043C40.0734 22.7275 40.5032 22.8958 40.9594 22.6838Z" fill="#0070BD"></path></svg>