<svg xmlns="http://www.w3.org/2000/svg" width="65" height="65" viewBox="0 0 65 65" fill="none"><rect x="0.0117188" y="0.254639" width="63.9991" height="63.9991" rx="10" fill="white"></rect><path d="M35.242 28.1687C35.242 28.1687 25.5509 27.1826 23.8579 34.0493C22.1648 40.916 21.8997 41.8496 21.8997 41.8496C21.8997 41.8496 20.8708 46.3864 24.641 46.6391C27.1888 46.8081 29.746 46.8114 32.2942 46.649M40.3779 35.604C38.6884 42.4789 38.4871 46.7402 31.5775 46.6826M33.6276 38.174C37.0226 36.207 40.8038 34.8982 44.7475 34.3249" stroke="#008671" stroke-width="2" stroke-linecap="round"></path><path d="M30.1345 23.9638C30.1053 23.7477 28.9009 15.0405 39.4597 15.6445C39.6324 16.573 39.6083 17.5243 39.3889 18.4441C39.1695 19.3639 38.7591 20.2341 38.181 21.0051C37.6029 21.7762 36.8684 22.4329 36.0196 22.9378C35.1708 23.4427 34.2243 23.7859 33.234 23.9478C32.4575 24.0748 31.6647 24.0885 30.8837 23.9885C30.6405 23.9846 30.3908 23.9764 30.1345 23.9638Z" fill="#008671" stroke="#008671" stroke-width="1.5"></path></svg>