<svg xmlns="http://www.w3.org/2000/svg" width="75" height="75" viewBox="0 0 75 75" fill="none"><rect x="0.582031" y="24.6526" width="55.6397" height="55.6397" rx="10" transform="rotate(-25.2042 0.582031 24.6526)" fill="white"></rect><path d="M43.8226 50.5882C51.079 47.1736 54.1934 38.523 50.7788 31.2667C47.3642 24.0103 38.7136 20.8959 31.4573 24.3105C24.2009 27.7251 21.0865 36.3756 24.5011 43.632C27.9157 50.8884 36.5662 54.0028 43.8226 50.5882Z" fill="#003E47"></path><path d="M37.2544 51.968C37.9818 41.5688 32.4466 37.3262 32.4466 37.3262C29.1096 39.198 27.5518 42.8392 27.5518 42.8392C33.8273 44.8076 35.0879 51.7458 35.0879 51.7458C35.0879 51.7458 36.6933 52.018 37.2544 51.968Z" fill="#38AF79"></path><path fill-rule="evenodd" clip-rule="evenodd" d="M32.67 37.0337L32.4459 37.326C32.67 37.0337 32.6702 37.0338 32.6704 37.034L32.671 37.0344L32.6724 37.0355L32.6769 37.039C32.6805 37.0418 32.6854 37.0457 32.6916 37.0506C32.704 37.0605 32.7215 37.0747 32.7436 37.0931C32.7879 37.13 32.8511 37.1842 32.9301 37.2561C33.0882 37.3998 33.3101 37.6146 33.5724 37.9041C34.097 38.4831 34.7837 39.3618 35.4456 40.5703C36.7712 42.9906 37.9899 46.7211 37.6211 51.9935L37.5992 52.3067L37.2864 52.3347C36.9576 52.364 36.3732 52.3011 35.9121 52.2407C35.6727 52.2093 35.4515 52.1764 35.2902 52.1513C35.2095 52.1388 35.1437 52.1282 35.0979 52.1207C35.075 52.117 35.057 52.114 35.0448 52.112L35.0257 52.1088C35.0257 52.1088 35.0256 52.1088 35.0871 51.7456L35.0257 52.1088L34.7709 52.0656L34.7248 51.8117L34.7247 51.8114L34.7242 51.8088L34.7218 51.7963C34.7196 51.7847 34.716 51.7668 34.7109 51.7428C34.7009 51.695 34.6851 51.6231 34.6627 51.53C34.6177 51.344 34.5463 51.0737 34.441 50.7422C34.2304 50.0785 33.8857 49.1734 33.3504 48.2092C32.2791 46.2796 30.459 44.1371 27.4408 43.1904L27.0522 43.0685L27.2124 42.6941L27.551 42.839C27.2124 42.6941 27.2124 42.6939 27.2125 42.6938L27.213 42.6926L27.2142 42.6898L27.2183 42.6804C27.2218 42.6724 27.2269 42.6609 27.2335 42.6463C27.2468 42.6169 27.2662 42.5746 27.2919 42.5206C27.3433 42.4126 27.4197 42.2579 27.5218 42.0671C27.7257 41.6857 28.0325 41.1588 28.446 40.5722C29.2707 39.4022 30.5323 37.977 32.2657 37.0047L32.4774 36.886L32.67 37.0337ZM28.063 42.6223C31.0801 43.7019 32.9138 45.905 33.9945 47.8516C34.5588 48.8681 34.9214 49.8205 35.1432 50.5193C35.2542 50.869 35.3303 51.1561 35.3788 51.3572C35.3843 51.3799 35.3894 51.4015 35.3942 51.4219C35.3972 51.4224 35.4002 51.4229 35.4033 51.4233C35.5606 51.4478 35.7758 51.4798 36.0079 51.5102C36.3282 51.5522 36.656 51.5876 36.908 51.6005C37.1918 46.6554 36.0314 43.1735 34.7995 40.9242C34.1685 39.7721 33.5169 38.9401 33.0264 38.3987C32.7812 38.128 32.5763 37.9301 32.4345 37.8012C32.4246 37.7921 32.415 37.7835 32.4057 37.7751C30.9133 38.6698 29.8001 39.9299 29.0482 40.9966C28.6551 41.5542 28.3639 42.0546 28.1714 42.4145C28.1309 42.4903 28.0947 42.5598 28.063 42.6223Z" fill="#14684E"></path><path d="M38.2451 30.5861C33.6461 31.3068 30.4267 34.8524 30.4267 34.8524C38.9487 44.3228 37.2541 51.9675 37.2541 51.9675C37.2541 51.9675 40.4941 52.1547 44.3483 50.3411C44.3483 50.3411 43.7142 34.0592 38.2451 30.5861Z" fill="#57D6A1"></path><path fill-rule="evenodd" clip-rule="evenodd" d="M32.399 32.6884C33.8056 31.6929 35.8134 30.594 38.1886 30.2218L38.3258 30.2002L38.4431 30.2747C39.9081 31.2051 41.0098 32.9612 41.8471 34.9975C42.6891 37.0451 43.2868 39.4333 43.7101 41.6979C44.1339 43.9649 44.3854 46.1206 44.531 47.7088C44.6038 48.5032 44.6502 49.1564 44.6784 49.6115C44.6925 49.8391 44.7021 50.0172 44.7082 50.1387C44.7112 50.1994 44.7133 50.2461 44.7147 50.2776C44.7154 50.2934 44.7159 50.3054 44.7163 50.3136L44.7167 50.3229L44.7168 50.3261C44.7168 50.3263 44.7168 50.3264 44.3487 50.3407L44.5056 50.674C42.5384 51.5997 40.7277 52.0149 39.4071 52.1989C38.7466 52.2908 38.2077 52.3251 37.8319 52.3362C37.644 52.3418 37.4967 52.3416 37.3952 52.3399C37.3445 52.3391 37.3052 52.3379 37.278 52.3369C37.2644 52.3364 37.2538 52.3359 37.2463 52.3355L37.2375 52.3351L37.2339 52.3349L37.2335 52.3349C37.2334 52.3349 37.2333 52.3349 37.2545 51.9671L37.2333 52.3349L36.8012 52.3099L36.8948 51.888L36.8948 51.8878L36.8949 51.8874L36.8953 51.8856C36.8958 51.8831 36.8967 51.8788 36.8979 51.8728C36.9003 51.8606 36.9041 51.8412 36.9088 51.8147C36.9182 51.7617 36.9313 51.6805 36.9454 51.5725C36.9736 51.3564 37.0055 51.033 37.018 50.6137C37.0429 49.7751 36.9903 48.5525 36.6759 47.0357C36.0477 44.0052 34.371 39.7855 30.1533 35.0984L29.9306 34.8509L30.1544 34.6044L30.4272 34.852C30.1544 34.6044 30.1545 34.6043 30.1546 34.6042L30.1556 34.6031L30.158 34.6005L30.1662 34.5915C30.1733 34.5839 30.1835 34.573 30.1967 34.559C30.2231 34.531 30.2618 34.4907 30.3122 34.4396C30.4131 34.3373 30.5611 34.1918 30.7527 34.0156C31.1357 33.6634 31.694 33.1873 32.399 32.6884ZM30.9306 34.8631C35.0673 39.5445 36.7541 43.7836 37.3973 46.8862C37.7244 48.4644 37.7808 49.7449 37.7543 50.6356C37.7423 51.0421 37.7129 51.3674 37.6842 51.6028C37.7235 51.6021 37.7655 51.6012 37.8101 51.5998C38.1622 51.5894 38.6743 51.5571 39.3055 51.4692C40.5186 51.3002 42.1685 50.9264 43.9691 50.1103C43.9631 49.996 43.9547 49.8436 43.9431 49.6571C43.9153 49.2082 43.8694 48.5623 43.7974 47.776C43.6532 46.2028 43.4043 44.071 42.986 41.8333C42.5672 39.5934 41.9809 37.2599 41.1658 35.2777C40.3711 33.3451 39.38 31.7995 38.1634 30.9724C35.9994 31.3414 34.149 32.3524 32.8246 33.2898C32.1497 33.7674 31.6158 34.2228 31.2514 34.5579C31.1227 34.6762 31.0154 34.7794 30.9306 34.8631Z" fill="#14684E"></path><path d="M47.6184 26.8958C41.7725 23.9507 35.889 27.3613 35.889 27.3613C46.884 42.0872 39.0862 51.9013 39.0862 51.9013C39.0862 51.9013 46.317 51.3409 49.9033 45.229C49.9033 45.229 56.1377 35.3786 47.6184 26.8958Z" fill="#BEFEA8"></path><path fill-rule="evenodd" clip-rule="evenodd" d="M39.4831 25.6642C41.7365 25.1683 44.7622 25.0438 47.7849 26.5666L47.8374 26.5931L47.8791 26.6346C52.2365 30.9733 52.8276 35.6805 52.3212 39.2944C52.0687 41.0959 51.5445 42.6242 51.0838 43.7019C50.8533 44.2413 50.6381 44.6691 50.4797 44.9635C50.4005 45.1107 50.3354 45.2247 50.2897 45.3026C50.2668 45.3416 50.2487 45.3716 50.2361 45.3922C50.2298 45.4025 50.2249 45.4105 50.2214 45.4161L50.2191 45.4198C48.3717 48.5654 45.5906 50.276 43.2877 51.1989C42.1348 51.6609 41.0967 51.9277 40.3457 52.0792C39.9699 52.155 39.6653 52.202 39.4533 52.2303C39.3473 52.2444 39.2643 52.2538 39.2072 52.2597C39.1786 52.2627 39.1564 52.2648 39.141 52.2662C39.1333 52.2669 39.1273 52.2674 39.123 52.2678L39.1179 52.2682L39.1164 52.2683L39.1158 52.2684C39.1156 52.2684 39.1154 52.2684 39.087 51.9012L39.1154 52.2684L38.2728 52.3337L38.7983 51.6724L38.7983 51.6723L38.7986 51.672L38.7987 51.6718L38.8016 51.6681C38.8045 51.6644 38.8091 51.6584 38.8155 51.65C38.8282 51.6333 38.8476 51.6072 38.8731 51.5719C38.924 51.5013 38.9988 51.3939 39.0911 51.2509C39.2756 50.965 39.5298 50.537 39.8023 49.9765C40.3474 48.8555 40.9649 47.2063 41.2464 45.1044C41.8079 40.9118 41.0384 34.8724 35.5946 27.5814L35.3471 27.2499L35.705 27.0424L35.8898 27.3611C35.705 27.0424 35.7052 27.0423 35.7054 27.0422L35.7058 27.0419L35.7071 27.0412L35.7114 27.0388C35.7149 27.0367 35.7199 27.0339 35.7262 27.0303C35.7389 27.0232 35.7573 27.013 35.781 27C35.8285 26.9742 35.8977 26.9373 35.9872 26.8918C36.1661 26.801 36.4263 26.6757 36.7561 26.5353C37.4153 26.2546 38.3554 25.9123 39.4831 25.6642ZM36.4417 27.4883C41.7618 34.7699 42.5561 40.875 41.9766 45.2022C41.683 47.3946 41.0383 49.1194 40.4649 50.2987C40.2421 50.7569 40.0299 51.133 39.853 51.4226C39.9597 51.4038 40.0756 51.3821 40.2 51.357C40.9168 51.2124 41.9106 50.9571 43.0137 50.515C45.2217 49.6302 47.8475 48.0058 49.5864 45.0424L49.7345 44.79C49.7631 44.7391 49.7954 44.6805 49.831 44.6144C49.9802 44.337 50.1856 43.929 50.4064 43.4124C50.8485 42.3781 51.3504 40.9136 51.5916 39.1921C52.0709 35.7717 51.5249 31.3306 47.401 27.1983C44.5952 25.8037 41.778 25.9135 39.6415 26.3837C38.5675 26.62 37.6714 26.9463 37.0447 27.2131C36.8006 27.317 36.5978 27.4118 36.4417 27.4883Z" fill="#14684E"></path><path fill-rule="evenodd" clip-rule="evenodd" d="M31.6149 24.6437C24.5426 27.9717 21.5072 36.4028 24.8352 43.4751C28.1632 50.5474 36.5943 53.5828 43.6666 50.2548C50.7389 46.9268 53.7742 38.4958 50.4463 31.4235C47.1183 24.3512 38.6872 21.3158 31.6149 24.6437ZM24.1686 43.7888C20.6674 36.3483 23.8608 27.4784 31.3012 23.9771C38.7417 20.4759 47.6117 23.6693 51.1129 31.1098C54.6141 38.5502 51.4207 47.4202 43.9802 50.9214C36.5398 54.4226 27.6698 51.2292 24.1686 43.7888Z" fill="#14684E"></path><path fill-rule="evenodd" clip-rule="evenodd" d="M42.8832 47.6913C42.549 49.0567 42.052 50.4947 41.3458 51.6646L40.7151 51.2839C41.368 50.2022 41.8428 48.8432 42.1676 47.5162L42.8832 47.6913Z" fill="#14684E"></path><path fill-rule="evenodd" clip-rule="evenodd" d="M39.8902 27.1673L40.2917 27.1107C42.8389 26.7515 46.311 26.8235 49.8051 28.932L49.4244 29.5628C46.2873 27.6696 43.1661 27.508 40.7677 27.7918C40.8488 28.6987 40.4562 29.5205 39.7646 30.1026C43.4468 36.4842 43.7975 41.8075 43.3189 45.3824L43.3189 45.3827C43.2143 46.1595 43.0688 46.9303 42.8829 47.6917L42.1672 47.517C42.3469 46.7808 42.4877 46.0355 42.5888 45.2844C43.0535 41.8124 42.7138 36.5518 38.9647 30.1935L38.7892 29.8959L39.075 29.7017C39.8339 29.1862 40.1866 28.4003 39.985 27.5616L39.8902 27.1673Z" fill="#14684E"></path><path fill-rule="evenodd" clip-rule="evenodd" d="M49.0365 44.6838C49.3928 44.6397 49.7383 44.5324 50.0568 44.367L50.3964 45.0208C50.0001 45.2266 49.5702 45.3601 49.127 45.415L49.0365 44.6838Z" fill="#14684E"></path><path fill-rule="evenodd" clip-rule="evenodd" d="M48.9 36.4229C47.0475 36.3496 45.3758 38.0802 45.2829 40.4259C45.1899 42.7716 46.7196 44.6288 48.5722 44.7022L48.5723 44.7023C48.7277 44.7084 48.8833 44.7022 49.0376 44.6835L49.126 45.4149C48.9326 45.4383 48.7377 45.4461 48.5431 45.4384C46.1747 45.3445 44.4424 43.0304 44.5467 40.3968C44.651 37.7632 46.5607 35.5931 48.9291 35.6868C50.4487 35.7461 51.7171 36.7342 52.3918 38.1175L51.7297 38.4405C51.1492 37.2505 50.0968 36.4696 48.9002 36.4229L48.9 36.4229Z" fill="#14684E"></path><path fill-rule="evenodd" clip-rule="evenodd" d="M35.3736 32.5108L35.3817 32.5074C36.4463 32.0636 37.547 31.7121 38.6718 31.4568L38.8349 32.1752C37.7541 32.4205 36.6964 32.758 35.6733 33.184C35.2051 33.4064 34.7504 33.6558 34.3114 33.9311C34.4706 34.3575 34.5066 34.8217 34.4131 35.2699C34.3297 35.6699 34.1466 36.0403 33.8832 36.3479C38.5538 42.6052 39.2605 47.607 38.969 51.9068L38.2339 51.857C38.5182 47.665 37.8333 42.7645 33.1048 36.5389L32.8972 36.2656L33.1552 36.0392C33.4292 35.7989 33.6175 35.4761 33.6919 35.1194C33.7663 34.7628 33.7228 34.3916 33.5679 34.0619M35.3736 32.5108L35.3656 32.5145L35.3736 32.5108ZM35.3656 32.5145C34.768 32.7979 34.1912 33.1231 33.6394 33.4876L35.3656 32.5145ZM33.6394 33.4876L33.3574 33.6738L33.6394 33.4876ZM33.3574 33.6738L33.5187 33.9707L33.3574 33.6738ZM33.5187 33.9707C33.529 33.9897 33.5368 34.0036 33.543 34.0148L33.5187 33.9707ZM33.543 34.0148C33.5539 34.0343 33.5603 34.0458 33.5678 34.0618L33.543 34.0148Z" fill="#14684E"></path><path fill-rule="evenodd" clip-rule="evenodd" d="M29.8266 40.9835C30.7162 39.8385 31.7867 38.8463 32.9958 38.0461L33.4024 38.6605C32.3542 39.3542 31.4164 40.2005 30.6197 41.171C30.7703 41.3485 30.8786 41.5602 30.9337 41.7901C30.9923 42.0345 30.988 42.2877 30.9237 42.5269C34.1413 44.592 35.8788 47.8671 36.7895 51.7614L36.0721 51.9292C35.1634 48.0434 33.4368 44.9075 30.2785 42.9926L29.9779 42.8103L30.1459 42.5016C30.2356 42.3367 30.2611 42.1444 30.2173 41.9618C30.1736 41.7793 30.0637 41.6194 29.909 41.5131L29.587 41.292L29.8266 40.9835Z" fill="#14684E"></path></svg>