<svg xmlns="http://www.w3.org/2000/svg" width="63" height="63" viewBox="0 0 63 63" fill="none"><rect x="12.5615" y="0.898926" width="51.1859" height="51.1859" rx="10" transform="rotate(13.4501 12.5615 0.898926)" fill="white"></rect><g clip-path="url(#clip0_42_167)"><path fill-rule="evenodd" clip-rule="evenodd" d="M17.1424 37.8159C17.1547 37.8245 17.167 37.833 17.1773 37.842L43.9336 44.2409C44.102 44.2089 44.2374 44.1371 44.232 43.946C44.2265 43.7505 44.0757 43.6954 43.9112 43.6628C43.8816 43.6569 43.8522 43.6495 43.8228 43.6422C43.8092 43.6387 43.7955 43.6353 43.7818 43.632L40.2529 42.7881C41.0635 42.6847 41.7616 42.3938 42.308 41.8084C42.8432 41.2435 43.1293 40.494 43.1052 39.7197C43.1277 39.7185 43.1483 39.7173 43.1676 39.7162C43.2052 39.7141 43.238 39.7122 43.2708 39.7111C43.3657 39.7103 43.4593 39.6903 43.5455 39.6523C43.6317 39.6143 43.7087 39.5591 43.7717 39.4903C43.8347 39.4215 43.8823 39.3405 43.9114 39.2524C43.9406 39.1644 43.9507 39.0711 43.9411 38.9786C43.836 37.7041 42.7699 36.4103 41.5196 36.0066C41.0365 35.8556 40.5313 35.7872 40.0263 35.8045C40.0311 35.1841 39.9471 34.5652 39.7766 33.9658C39.4749 32.747 39.1618 31.5308 38.8487 30.3145C38.7216 29.821 38.5945 29.3275 38.4682 28.8338C38.4575 28.792 38.4482 28.7499 38.4378 28.703C38.4328 28.6802 38.4275 28.6563 38.4217 28.6308C38.453 28.636 38.4808 28.6409 38.5063 28.6454C38.5558 28.6542 38.5966 28.6614 38.6377 28.6665C38.6813 28.6761 38.7264 28.6772 38.7702 28.6697C38.814 28.6621 38.8558 28.6462 38.8931 28.6228C38.9305 28.5994 38.9626 28.5689 38.9877 28.5331C39.0128 28.4974 39.0304 28.457 39.0394 28.4144C39.2163 27.7018 39.3868 26.9876 39.5509 26.272C39.5633 26.2283 39.5662 26.1824 39.5596 26.1372C39.553 26.0921 39.537 26.0486 39.5125 26.0096C39.488 25.9706 39.4556 25.9369 39.4174 25.9105C39.3791 25.8841 39.3358 25.8657 39.2901 25.8563C38.9976 25.7771 38.6987 25.7237 38.397 25.697C37.5889 25.6544 36.9304 25.9926 36.3656 26.5206C36.3295 26.5651 36.2794 26.5967 36.2228 26.6104C36.1663 26.6242 36.1065 26.6193 36.0526 26.5966C35.9141 26.5476 35.7718 26.5091 35.6297 26.4706C35.6008 26.4628 35.5719 26.455 35.543 26.4471C35.2919 26.3782 35.1049 26.4591 35.0553 26.6546C35.0067 26.8462 35.1183 27.0021 35.3596 27.0705C35.418 27.0871 35.4771 27.1012 35.5362 27.1153C35.6313 27.138 35.7264 27.1607 35.8177 27.1935C35.8758 27.2255 35.9199 27.2773 35.9414 27.339C35.985 27.4455 36.0228 27.5542 36.0606 27.6629C36.083 27.7274 36.1054 27.7919 36.129 27.8559C36.1741 27.9422 36.2101 28.0326 36.2364 28.1259C36.3107 28.6657 36.3825 29.2058 36.4542 29.7459C36.5784 30.6817 36.7027 31.6175 36.8405 32.5515C36.9919 33.4364 36.846 34.3422 36.4249 35.1327C35.8621 36.1786 35.0544 37.0189 34.1279 37.7586C34.0642 37.7896 33.9904 37.7951 33.922 37.774C32.7632 37.501 31.6054 37.2241 30.4485 36.9433C30.3513 36.9186 30.2596 36.8759 30.1784 36.8177C29.3788 36.2452 29.1369 35.4027 29.5198 34.4998C29.5311 34.4731 29.5423 34.4455 29.5538 34.4176C29.6234 34.2469 29.6993 34.061 29.8332 33.9696C30.3299 33.6307 30.6009 33.2052 30.5451 32.5766C30.572 32.583 30.5971 32.5892 30.6211 32.5952C30.6702 32.6073 30.7145 32.6183 30.7592 32.6274C31.0839 32.6937 31.2882 32.5708 31.3648 32.2611C31.4122 32.0693 31.4578 31.8771 31.5033 31.6849C31.5175 31.625 31.5317 31.565 31.546 31.5051C31.6792 30.9456 31.4046 30.5128 30.8284 30.3749C29.0486 29.949 27.2687 29.5234 25.4888 29.0981C25.4214 29.0803 25.3531 29.0665 25.2842 29.0568C25.136 29.031 24.9837 29.0502 24.848 29.1118C24.7123 29.1735 24.5998 29.2747 24.5256 29.4017C24.4398 29.5288 24.3987 29.6802 24.4085 29.8332C24.4182 29.9862 24.4784 30.1325 24.5798 30.2503C24.6117 30.2791 24.6474 30.3035 24.686 30.3228L23.9265 30.5442L22.3739 27.7293C22.4204 27.7404 22.4595 27.7498 22.4941 27.7581C22.5524 27.7721 22.5977 27.783 22.6431 27.7937C23.8694 28.0828 25.096 28.3708 26.3228 28.6577C26.5303 28.7062 26.6771 28.6338 26.7127 28.475C26.7493 28.3119 26.654 28.1924 26.4436 28.1412C26.2739 28.0999 26.1041 28.0595 25.9325 28.0186C25.8576 28.0007 25.7823 27.9828 25.7066 27.9647C25.7093 27.9435 25.7111 27.9253 25.7127 27.909C25.7157 27.8789 25.718 27.8554 25.7235 27.8328C25.9457 26.8999 26.1683 25.9671 26.3913 25.0344C26.4535 24.7741 26.5159 24.5138 26.5783 24.2535C26.7001 23.7458 26.8219 23.2381 26.9421 22.73C27.0437 22.301 26.9069 22.0898 26.4666 21.9844C24.4096 21.4924 22.3525 21.0004 20.2955 20.5086C19.8378 20.3992 19.6298 20.5206 19.5242 20.9611C19.2866 21.9539 19.0491 22.9468 18.8117 23.9397L18.2742 26.1872C18.2 26.1695 18.1279 26.1519 18.0572 26.1347C17.877 26.0908 17.7059 26.0492 17.5337 26.0126C17.4631 25.9976 17.3592 25.9807 17.319 26.0165C17.2376 26.0833 17.1818 26.175 17.1604 26.2771C17.1459 26.4171 17.2625 26.4905 17.3981 26.5242C17.5773 26.5686 17.7563 26.6138 17.9354 26.6589C18.2228 26.7314 18.5102 26.8038 18.7983 26.8736C19.6905 27.0905 20.5837 27.3034 21.4777 27.5125C21.5326 27.5227 21.5844 27.5454 21.6287 27.579C21.6731 27.6125 21.7088 27.6558 21.7328 27.7052C22.0408 28.268 22.3518 28.8292 22.6629 29.3903C22.7966 29.6316 22.9304 29.8729 23.0639 30.1143C23.1524 30.2745 23.2399 30.4352 23.3269 30.5952C23.3665 30.6678 23.4059 30.7403 23.4454 30.8126C23.2878 30.9041 23.1406 31.0115 23.006 31.133C22.8757 31.2915 22.7004 31.4087 22.5017 31.4702C22.303 31.5317 22.0896 31.5348 21.8877 31.4792C21.5507 31.4098 21.2728 31.5762 21.0844 31.8546C20.9703 32.0233 20.8661 32.1993 20.7697 32.3783C20.6831 32.5337 20.6503 32.7127 20.6763 32.889C20.7023 33.0652 20.7857 33.2292 20.914 33.3565C21.0131 33.4443 21.1182 33.5255 21.2285 33.5996C21.195 33.6743 21.1621 33.7503 21.129 33.8268C21.0471 34.0158 20.9638 34.2081 20.8672 34.3936C20.843 34.4606 20.7958 34.5171 20.7335 34.5535C20.6713 34.5899 20.5978 34.604 20.5256 34.5935C20.3742 34.5735 20.2917 34.6918 20.2582 34.8305C20.2415 34.8994 20.2245 34.9683 20.2076 35.0372C20.1567 35.244 20.1058 35.4507 20.0618 35.659C20.0075 35.9161 20.1049 36.0609 20.3665 36.1259C20.4009 36.1344 20.4352 36.143 20.4695 36.1515C20.7732 36.2271 21.077 36.3027 21.3832 36.3664C21.4442 36.3706 21.5018 36.3965 21.545 36.4392C21.5883 36.4818 21.6142 36.5384 21.618 36.5981C21.6911 36.9986 21.8485 37.3808 22.0799 37.7204C22.3114 38.0601 22.612 38.3498 22.9626 38.5711C22.99 38.5896 23.0163 38.6095 23.0426 38.6295C23.055 38.6389 23.0674 38.6483 23.0798 38.6576L23.0647 38.6774L22.8621 38.629C21.0823 38.2032 19.3024 37.7776 17.5225 37.3522C17.4525 37.323 17.377 37.309 17.3012 37.311C17.2068 37.3341 17.0794 37.3797 17.0473 37.4513C17.0174 37.5179 17.0435 37.6122 17.0677 37.6996C17.073 37.7184 17.0781 37.7369 17.0826 37.7548C17.0884 37.7784 17.1154 37.7971 17.1424 37.8159ZM38.5599 42.37L24.8462 39.0902C24.9358 39.0665 25.0284 39.0439 25.1227 39.021C25.338 38.9686 25.5621 38.9141 25.7779 38.8379C26.2912 38.6564 26.7343 38.3261 27.0486 37.8907C27.077 37.8416 27.123 37.8045 27.1777 37.7864C27.2325 37.7684 27.2924 37.7706 27.3461 37.7926C28.1442 37.9853 28.9428 38.1756 29.7415 38.366C31.0804 38.6851 32.4194 39.0042 33.7557 39.3343C34.6092 39.5439 35.5058 39.4825 36.3151 39.1591C36.3623 39.1413 36.4095 39.1231 36.4441 39.1098C36.4567 39.1049 36.4677 39.1006 36.4764 39.0973L37.0078 39.5441C36.9472 40.7096 37.4622 41.6579 38.5599 42.37ZM38.3843 39.8156C38.385 39.8029 38.3857 39.7905 38.386 39.7784C38.4978 39.7831 38.6091 39.7885 38.7199 39.7938C38.9641 39.8055 39.2063 39.8172 39.4486 39.8219C39.9289 39.8177 40.404 39.7333 40.8534 39.5724C41.0872 39.5056 41.3266 39.459 41.5691 39.4331C41.6006 39.4389 41.6301 39.4524 41.6549 39.4724C41.6797 39.4924 41.6989 39.5181 41.7108 39.5473C41.8877 40.4691 41.1509 41.3439 40.1903 41.4164C39.3144 41.4825 38.4419 40.8039 38.3831 39.9025C38.3812 39.8732 38.3828 39.8438 38.3843 39.8156ZM24.411 37.7102C23.8246 37.6367 23.2956 37.2527 23.1206 36.7921L25.6277 37.3917C25.4602 37.5258 25.2652 37.6235 25.0556 37.6783C24.8459 37.7332 24.6262 37.7441 24.411 37.7102ZM38.9421 26.346L38.5303 28.068L38.1883 27.9862L38.6001 26.2642L38.9421 26.346ZM22.05 32.0442L21.438 33.053C21.249 32.9619 21.1783 32.8295 21.259 32.6658C21.3509 32.4778 21.4586 32.2977 21.5812 32.1275C21.6982 31.9666 21.8747 32.0006 22.05 32.0442ZM20.7893 24.665L21.1327 23.2288L22.0639 23.4515L22.004 23.7019L21.3702 23.5503L21.2884 23.8925L21.8604 24.0293L21.8005 24.2797L21.2285 24.1429L21.0866 24.7361L20.7893 24.665ZM20.1037 24.5233C19.9952 24.4974 19.9072 24.4526 19.8396 24.389C19.7726 24.325 19.728 24.2466 19.7057 24.1538C19.6834 24.0605 19.6859 23.9571 19.7131 23.8435C19.7396 23.7327 19.7839 23.6405 19.846 23.5668C19.9082 23.4932 19.9831 23.4422 20.0707 23.4137C20.1588 23.3854 20.2546 23.3836 20.358 23.4083C20.4276 23.4249 20.4896 23.4519 20.5441 23.4891C20.5992 23.526 20.6437 23.5725 20.6778 23.6286C20.7122 23.6848 20.7338 23.7503 20.7426 23.825C20.7514 23.8993 20.7449 23.9822 20.723 24.0739L20.7034 24.1559L19.9851 23.9841L19.9849 23.9848C19.9722 24.0381 19.9708 24.0865 19.9807 24.1299C19.9911 24.1734 20.0117 24.2099 20.0423 24.2395C20.073 24.2691 20.1129 24.2897 20.1618 24.3015C20.1943 24.3092 20.2252 24.3117 20.2545 24.3088C20.2837 24.3059 20.3102 24.2974 20.3339 24.2833C20.3576 24.2692 20.3777 24.2498 20.3943 24.2251L20.6605 24.308C20.6309 24.3711 20.5888 24.4224 20.5344 24.4617C20.4806 24.5008 20.4169 24.5261 20.3435 24.5377C20.2706 24.5489 20.1907 24.5441 20.1037 24.5233ZM20.0842 23.7002C20.0588 23.7278 20.0407 23.7608 20.0296 23.7991L20.4723 23.9049C20.4826 23.8619 20.4825 23.8216 20.4722 23.784C20.4618 23.7465 20.4426 23.7145 20.4145 23.688C20.3871 23.6611 20.3521 23.6426 20.3095 23.6325C20.2651 23.6218 20.2232 23.6229 20.1838 23.6358C20.145 23.6482 20.1118 23.6697 20.0842 23.7002ZM22.0489 24.9151C22.1157 24.98 22.2024 25.0252 22.309 25.0507C22.4157 25.0763 22.5133 25.0751 22.6017 25.0473C22.6907 25.0192 22.7662 24.9686 22.8282 24.8954C22.8904 24.8218 22.9346 24.7298 22.961 24.6195C22.9876 24.5082 22.9898 24.4059 22.9676 24.3127C22.9455 24.2189 22.9011 24.1396 22.8343 24.0747C22.7681 24.0094 22.6817 23.964 22.575 23.9385C22.4684 23.913 22.3705 23.9143 22.2815 23.9425C22.1931 23.9702 22.1178 24.0209 22.0557 24.0946C21.9937 24.1677 21.9493 24.2599 21.9227 24.3712C21.8963 24.4815 21.8942 24.5836 21.9163 24.6773C21.9385 24.7706 21.9827 24.8499 22.0489 24.9151ZM22.4974 24.8066C22.4582 24.8269 22.4143 24.8313 22.3658 24.8197C22.3168 24.8079 22.2789 24.7841 22.2522 24.748C22.2261 24.7116 22.2104 24.6668 22.2052 24.6137C22.2005 24.5607 22.2056 24.5028 22.2206 24.4402C22.2356 24.3775 22.2572 24.3236 22.2854 24.2785C22.3141 24.2335 22.3483 24.2006 22.3881 24.18C22.4283 24.1595 22.4729 24.155 22.5219 24.1668C22.5704 24.1784 22.6075 24.2023 22.6332 24.2386C22.6589 24.2749 22.6741 24.3196 22.6789 24.3726C22.6841 24.4257 22.6792 24.4836 22.6642 24.5463C22.6492 24.6089 22.6274 24.6628 22.5987 24.7078C22.5705 24.753 22.5367 24.7859 22.4974 24.8066ZM23.495 25.3344C23.3883 25.3089 23.3016 25.2637 23.2348 25.1988C23.1687 25.1335 23.1245 25.0542 23.1022 24.9609C23.0801 24.8672 23.0823 24.7651 23.1087 24.6548C23.1353 24.5435 23.1796 24.4513 23.2416 24.3782C23.3037 24.3046 23.379 24.2539 23.4675 24.2261C23.5565 24.1979 23.6543 24.1966 23.761 24.2221C23.8677 24.2477 23.9541 24.293 24.0203 24.3583C24.087 24.4232 24.1315 24.5025 24.1536 24.5963C24.1758 24.6896 24.1736 24.7918 24.147 24.9031C24.1206 25.0135 24.0763 25.1054 24.0142 25.179C23.9522 25.2522 23.8767 25.3028 23.7876 25.331C23.6992 25.3587 23.6017 25.3599 23.495 25.3344ZM23.5517 25.1033C23.6002 25.1149 23.6441 25.1105 23.6833 25.0903C23.7226 25.0695 23.7564 25.0366 23.7846 24.9914C23.8133 24.9464 23.8351 24.8925 23.8501 24.8299C23.8651 24.7673 23.87 24.7094 23.8648 24.6562C23.8601 24.6032 23.8448 24.5585 23.8192 24.5222C23.7935 24.4859 23.7564 24.462 23.7078 24.4504C23.6589 24.4387 23.6143 24.4431 23.574 24.4636C23.5342 24.4842 23.5 24.5171 23.4713 24.5621C23.4431 24.6073 23.4215 24.6612 23.4065 24.7238C23.3915 24.7865 23.3864 24.8443 23.3912 24.8973C23.3964 24.9505 23.412 24.9952 23.4382 25.0316C23.4649 25.0677 23.5027 25.0916 23.5517 25.1033ZM24.3913 25.4783C24.4462 25.5359 24.5138 25.5743 24.5939 25.5935C24.6506 25.607 24.701 25.609 24.745 25.5992C24.7894 25.5896 24.8274 25.5732 24.8591 25.5501C24.8913 25.5267 24.9178 25.5017 24.9387 25.475L24.9511 25.478L24.9098 25.6505L25.1982 25.7195L25.5417 24.2833L25.2499 24.2135L25.1207 24.7534L25.1118 24.7513C25.1059 24.7193 25.0942 24.6853 25.0766 24.6495C25.0596 24.6133 25.0336 24.5804 24.9986 24.5508C24.9641 24.5208 24.9174 24.4987 24.8583 24.4846C24.781 24.4661 24.7049 24.4696 24.63 24.4952C24.5557 24.5205 24.4893 24.5696 24.4307 24.6425C24.3722 24.7151 24.3282 24.813 24.2987 24.9364C24.27 25.0566 24.2645 25.1625 24.2822 25.2543C24.3006 25.3456 24.3369 25.4203 24.3913 25.4783ZM24.8723 25.3672C24.8335 25.3856 24.7906 25.3892 24.7434 25.3779C24.6954 25.3664 24.658 25.3434 24.6314 25.3089C24.6054 25.274 24.5894 25.2306 24.5834 25.1788C24.578 25.1266 24.5828 25.0691 24.5978 25.0065C24.6126 24.9443 24.6342 24.8916 24.6624 24.8485C24.6906 24.8053 24.7244 24.7743 24.7638 24.7556C24.8031 24.7368 24.8468 24.7332 24.8949 24.7447C24.942 24.7559 24.979 24.7784 25.0058 24.812C25.0326 24.8456 25.0491 24.8881 25.0552 24.9394C25.0613 24.9908 25.0567 25.0485 25.0414 25.1126C25.0261 25.1766 25.0038 25.2304 24.9745 25.2738C24.9457 25.3173 24.9116 25.3484 24.8723 25.3672Z" fill="#FF7F57"></path></g><defs><clipPath id="clip0_42_167"><rect width="28.628" height="16.4099" fill="white" transform="translate(20.2236 21.6777) rotate(13.4501)"></rect></clipPath></defs></svg>