<svg xmlns="http://www.w3.org/2000/svg" width="89" height="89" viewBox="0 0 89 89" fill="none"><rect x="16.3564" y="0.491211" width="73.6507" height="73.6507" rx="10" transform="rotate(12.6327 16.3564 0.491211)" fill="white"></rect><g clip-path="url(#clip0_42_157)"><path d="M50.1514 34.5088L58.8787 36.4648C57.5785 46.4932 56.2831 56.4998 54.9841 66.5227L48.9906 65.1795C49.7306 59.6216 50.4731 54.0529 51.2137 48.4664C51.1153 48.4386 51.036 48.4036 50.9585 48.3862C50.0564 48.184 49.1544 47.9819 48.2579 47.7809C48.0642 47.7375 47.956 47.7535 47.8454 47.9358C46.2767 50.6043 44.7037 53.266 43.1239 55.932C42.2373 57.4245 41.3395 58.9145 40.4129 60.4555C40.3913 60.2148 40.3753 60.0272 40.3549 59.8328C40.1074 57.3325 39.8531 54.8365 39.6001 52.335C39.389 50.2168 39.1669 48.0961 38.9668 45.9804C38.9458 45.7629 38.8843 45.6743 38.663 45.6247C37.7683 45.4414 36.881 45.2253 35.9888 45.0311C35.8947 45.01 35.8037 45.0011 35.6918 44.9818C34.0005 50.3494 32.313 55.7006 30.6217 61.0683L24.6947 59.7399C27.6694 50.0982 30.6348 40.4717 33.6211 30.8039C36.3383 31.4129 39.039 32.0182 41.7396 32.6235C41.9499 32.6706 42.1602 32.7177 42.3705 32.7649L50.157 34.51L50.1514 34.5088ZM50.4251 36.2959C50.5657 35.6946 50.159 35.0455 49.5491 34.9145C48.9956 34.7905 48.3275 35.2045 48.1856 35.7594C48.0451 36.3089 48.4806 37.0105 49.0506 37.1383C49.6428 37.271 50.2882 36.8807 50.4251 36.2959ZM43.015 34.635C43.2127 34.0639 42.7784 33.4085 42.1832 33.2636C41.5812 33.1229 40.9499 33.5279 40.8105 34.1237C40.678 34.7153 41.076 35.351 41.678 35.4916C42.2523 35.6261 42.8769 35.2254 43.015 34.635Z" fill="#00B662"></path><path d="M37.0781 48.2486C37.5484 53.048 38.0225 57.9345 38.4984 62.8387L33.0473 61.617C34.4032 57.1234 35.7511 52.6394 37.0781 48.2486Z" fill="#00B662"></path><path d="M48.5395 50.9156C47.8765 55.3517 47.1816 59.982 46.4843 64.6232L41.0997 63.4164C43.6085 59.1984 46.1253 54.9707 48.5395 50.9156Z" fill="#00B662"></path><path d="M50.1508 34.508C49.935 34.4596 49.7192 34.4112 49.4978 34.3616C49.809 33.1026 49.9684 31.821 49.9569 30.5241C49.9467 29.5841 49.8393 28.6627 49.4596 27.7895C48.6159 25.8747 46.3759 25.4187 44.8947 26.8929C44.4823 27.3067 44.1326 27.8036 43.8383 28.3129C43.0475 29.6888 42.6484 31.21 42.3656 32.7573C42.1553 32.7102 41.945 32.6631 41.7347 32.6159C42.039 30.9469 42.5001 29.3303 43.3499 27.8468C43.8083 27.0464 44.3638 26.331 45.1802 25.8525C45.8287 25.4743 46.5037 25.2632 47.2625 25.5081C47.3763 25.5451 47.4925 25.5711 47.6056 25.585C49.0211 25.7527 49.7476 26.6863 50.1901 27.9015C50.6086 29.0422 50.6737 30.2303 50.5763 31.4165C50.49 32.4498 50.2949 33.4761 50.1465 34.5012L50.1508 34.508Z" fill="#00B662"></path><path d="M50.428 36.2963C50.2911 36.8811 49.6444 37.2769 49.0535 37.1387C48.4835 37.011 48.0479 36.3093 48.1885 35.7598C48.3303 35.2049 48.9985 34.7909 49.5519 34.9149C50.1606 35.0514 50.5685 35.695 50.428 36.2963ZM49.0995 36.9074C49.6086 37.0215 50.0838 36.7426 50.2066 36.2467C50.3294 35.7507 50.0304 35.2695 49.528 35.1512C49.0244 35.0383 48.5425 35.3215 48.4209 35.8119C48.3037 36.3091 48.6027 36.7903 49.0995 36.9074Z" fill="#00B662"></path><path d="M43.0227 34.6306C42.8901 35.2221 42.2656 35.6229 41.6857 35.4872C41.0837 35.3465 40.6789 34.7151 40.8183 34.1193C40.9521 33.5222 41.5889 33.1185 42.1909 33.2592C42.7873 33.3986 43.2217 34.0539 43.0227 34.6306ZM41.7219 35.2479C42.231 35.3621 42.7062 35.0831 42.829 34.5872C42.9505 34.0967 42.646 33.6143 42.1504 33.4917C41.648 33.3733 41.1716 33.6577 41.0488 34.1537C40.9261 34.6496 41.2195 35.1296 41.7231 35.2425L41.7219 35.2479Z" fill="#00B662"></path></g><defs><clipPath id="clip0_42_157"><rect width="31.0581" height="39.383" fill="white" transform="translate(33.1543 21.2881) rotate(12.6327)"></rect></clipPath></defs></svg>