<svg xmlns="http://www.w3.org/2000/svg" width="65" height="65" viewBox="0 0 65 65" fill="none"><rect x="0.429688" y="8.3291" width="57" height="57" rx="10" transform="rotate(-7.71935 0.429688 8.3291)" fill="white"></rect><path d="M46.3137 27.7661L16.9523 31.746C16.6066 31.7928 16.2927 31.5903 16.2961 31.3103C16.3112 28.6712 17.4636 26.1473 19.4126 24.1021C21.676 21.7278 25.0135 19.9949 28.8908 19.4693L31.5412 19.11C38.7536 18.1324 45.2849 21.6789 46.8336 27.171C46.9081 27.4404 46.6598 27.7226 46.3141 27.7694L46.3137 27.7661Z" fill="#FF9D59"></path><path d="M48.5068 39.39C48.482 40.7602 48.0147 42.0488 47.2203 43.0885C46.2446 44.3701 44.7802 45.2796 43.055 45.5134L24.8173 47.9855C21.6958 48.4087 18.7953 46.4651 17.9316 43.531L48.5064 39.3866L48.5068 39.39Z" fill="#FF9D59"></path><path d="M48.0921 35.7703L48.2685 37.0718C48.3195 37.448 47.9343 37.7384 47.5945 37.5739L47.5834 37.5685C47.5429 37.5499 43.1497 35.4669 37.8498 36.5236C36.1021 36.8709 34.7469 37.5931 33.3106 38.3538C31.7393 39.1881 30.117 40.0534 27.9389 40.4591C27.6361 40.5174 27.332 40.5655 27.0338 40.606C22.8683 41.1706 19.3366 40.4516 17.637 39.8812C17.4633 39.822 17.3357 39.6701 17.3114 39.4905L17.1345 38.1856C17.0849 37.8196 17.4579 37.5412 17.7964 37.6955C17.859 37.725 22.2953 39.4638 27.537 38.4875C29.3112 38.1573 30.6859 37.4256 32.1411 36.652C33.6833 35.832 35.2803 34.9839 37.4141 34.5566C42.0184 33.6391 45.9582 34.7204 47.7809 35.3845C47.9478 35.4447 48.0682 35.5941 48.0921 35.7703Z" fill="#FF9D59"></path><path d="M47.5809 31.9949L47.761 33.3235C47.8107 33.6896 47.4381 33.9713 47.103 33.8165C47.092 33.8111 47.0847 33.8087 47.0736 33.8033C47.0331 33.7846 42.6758 31.966 37.3759 33.0227C35.6282 33.37 34.273 34.0922 32.8367 34.8529C31.2654 35.6872 29.6431 36.5525 27.465 36.9582C27.1622 37.0165 26.8581 37.0647 26.5599 37.1051C22.3843 37.6711 18.8122 36.7056 17.1133 36.1144C16.9463 36.0542 16.8265 35.9082 16.8026 35.732L16.6248 34.4204C16.5752 34.0543 16.9482 33.7759 17.2866 33.9303C17.3493 33.9597 21.8218 35.9663 27.0631 34.9866C28.8373 34.6564 30.212 33.9247 31.6672 33.1511C33.2094 32.3311 34.8064 31.483 36.9402 31.0557C41.5445 30.1382 45.4551 30.9784 47.2712 31.6193C47.4376 31.6761 47.5546 31.8259 47.578 31.9988L47.5809 31.9949Z" fill="#FF9D59"></path><path d="M32.2117 31.237C31.7199 31.4797 31.2499 31.7298 30.8027 31.9699C29.4314 32.7011 28.2466 33.3312 26.7752 33.6031C26.5563 33.6431 26.3335 33.6802 26.1132 33.7101C23.1035 34.118 20.4174 33.4501 19.085 33.0164L32.2151 31.2366L32.2117 31.237Z" fill="#FF8C3C"></path><path d="M47.2325 29.4806L47.3088 30.0432C47.3336 30.2263 47.1757 30.3857 46.993 30.3622C45.6431 30.2069 44.5246 29.8994 43.7979 29.6562L46.9126 29.234C47.0685 29.2129 47.2109 29.3213 47.232 29.4772L47.2325 29.4806Z" fill="#FF8C3C"></path><path d="M38.9514 37.6169C41.9475 37.2107 44.5536 37.8998 45.8135 38.3331L32.7885 40.0986C33.2671 39.8612 33.7211 39.6201 34.1591 39.3882C35.5143 38.6661 36.6865 38.0447 38.145 37.7538C38.4105 37.7005 38.6841 37.6565 38.9518 37.6202L38.9514 37.6169Z" fill="#FF8C3C"></path><path d="M21.1772 41.6761L17.9268 42.1167C17.7845 42.136 17.6536 42.0363 17.6343 41.894L17.5438 41.2263C17.5213 41.0602 17.6602 40.9137 17.8284 40.9323C19.2687 41.0926 20.4554 41.4184 21.1772 41.6761Z" fill="#FF8C3C"></path><path d="M30.2163 19.2894C36.4192 20.2607 39.4572 21.8439 41.5995 24.2802C42.2482 25.0172 41.7321 26.0985 40.6066 26.3512L16.917 31.7126C16.8831 31.7172 16.892 31.7574 16.9225 31.7533L46.2975 27.7715C46.6703 27.721 46.9226 27.4176 46.8284 27.13C44.5838 20.2723 36.5668 17.9627 30.2129 19.2899L30.2163 19.2894Z" fill="#FF8C3C"></path><path d="M17.9326 43.5347C17.9326 43.5347 21.1953 46.3679 24.2056 46.4742C27.5487 46.5905 40.9953 44.7264 43.6466 43.839C46.4031 42.9131 47.9447 40.6884 48.5074 39.3903C48.6287 41.2273 47.0316 44.9782 43.8322 45.4119L24.3099 48.0581C22.0187 48.3687 18.8935 46.6765 17.9326 43.5347Z" fill="#FF8C3C"></path></svg>